solid exhaustValveRightInterface
  facet normal 9.987954e-01 4.906711e-02 -0.000000e+00
    outer loop
      vertex 3.650000e-02 0.000000e+00 9.500000e-02
      vertex 3.632424e-02 3.577626e-03 9.500000e-02
      vertex 3.650000e-02 0.000000e+00 1.350000e-01
    endloop
  endfacet
  facet normal 9.987954e-01 4.906711e-02 -0.000000e+00
    outer loop
      vertex 3.632424e-02 3.577626e-03 9.500000e-02
      vertex 3.632424e-02 3.577626e-03 1.350000e-01
      vertex 3.650000e-02 0.000000e+00 1.350000e-01
    endloop
  endfacet
  facet normal 9.891764e-01 1.467312e-01 -0.000000e+00
    outer loop
      vertex 3.632424e-02 3.577626e-03 9.500000e-02
      vertex 3.579866e-02 7.120797e-03 9.500000e-02
      vertex 3.632424e-02 3.577626e-03 1.350000e-01
    endloop
  endfacet
  facet normal 9.891764e-01 1.467312e-01 -0.000000e+00
    outer loop
      vertex 3.579866e-02 7.120797e-03 9.500000e-02
      vertex 3.579866e-02 7.120797e-03 1.350000e-01
      vertex 3.632424e-02 3.577626e-03 1.350000e-01
    endloop
  endfacet
  facet normal 9.700314e-01 2.429800e-01 -0.000000e+00
    outer loop
      vertex 3.579866e-02 7.120797e-03 9.500000e-02
      vertex 3.492832e-02 1.059539e-02 9.500000e-02
      vertex 3.579866e-02 7.120797e-03 1.350000e-01
    endloop
  endfacet
  facet normal 9.700314e-01 2.429800e-01 -0.000000e+00
    outer loop
      vertex 3.492832e-02 1.059539e-02 9.500000e-02
      vertex 3.492832e-02 1.059539e-02 1.350000e-01
      vertex 3.579866e-02 7.120797e-03 1.350000e-01
    endloop
  endfacet
  facet normal 9.415442e-01 3.368896e-01 -0.000000e+00
    outer loop
      vertex 3.492832e-02 1.059539e-02 9.500000e-02
      vertex 3.372160e-02 1.396795e-02 9.500000e-02
      vertex 3.492832e-02 1.059539e-02 1.350000e-01
    endloop
  endfacet
  facet normal 9.415442e-01 3.368896e-01 -0.000000e+00
    outer loop
      vertex 3.372160e-02 1.396795e-02 9.500000e-02
      vertex 3.372160e-02 1.396795e-02 1.350000e-01
      vertex 3.492832e-02 1.059539e-02 1.350000e-01
    endloop
  endfacet
  facet normal 9.039892e-01 4.275553e-01 -0.000000e+00
    outer loop
      vertex 3.372160e-02 1.396795e-02 9.500000e-02
      vertex 3.219013e-02 1.720598e-02 9.500000e-02
      vertex 3.372160e-02 1.396795e-02 1.350000e-01
    endloop
  endfacet
  facet normal 9.039892e-01 4.275553e-01 -0.000000e+00
    outer loop
      vertex 3.219013e-02 1.720598e-02 9.500000e-02
      vertex 3.219013e-02 1.720598e-02 1.350000e-01
      vertex 3.372160e-02 1.396795e-02 1.350000e-01
    endloop
  endfacet
  facet normal 8.577285e-01 5.141028e-01 -0.000000e+00
    outer loop
      vertex 3.219013e-02 1.720598e-02 9.500000e-02
      vertex 3.034864e-02 2.027831e-02 9.500000e-02
      vertex 3.219013e-02 1.720598e-02 1.350000e-01
    endloop
  endfacet
  facet normal 8.577285e-01 5.141028e-01 -0.000000e+00
    outer loop
      vertex 3.034864e-02 2.027831e-02 9.500000e-02
      vertex 3.034864e-02 2.027831e-02 1.350000e-01
      vertex 3.219013e-02 1.720598e-02 1.350000e-01
    endloop
  endfacet
  facet normal 8.032075e-01 5.956994e-01 -0.000000e+00
    outer loop
      vertex 3.034864e-02 2.027831e-02 9.500000e-02
      vertex 2.821488e-02 2.315535e-02 9.500000e-02
      vertex 3.034864e-02 2.027831e-02 1.350000e-01
    endloop
  endfacet
  facet normal 8.032075e-01 5.956994e-01 -0.000000e+00
    outer loop
      vertex 2.821488e-02 2.315535e-02 9.500000e-02
      vertex 2.821488e-02 2.315535e-02 1.350000e-01
      vertex 3.034864e-02 2.027831e-02 1.350000e-01
    endloop
  endfacet
  facet normal 7.409514e-01 6.715587e-01 -0.000000e+00
    outer loop
      vertex 2.821488e-02 2.315535e-02 9.500000e-02
      vertex 2.580940e-02 2.580940e-02 9.500000e-02
      vertex 2.821488e-02 2.315535e-02 1.350000e-01
    endloop
  endfacet
  facet normal 7.409514e-01 6.715587e-01 -0.000000e+00
    outer loop
      vertex 2.580940e-02 2.580940e-02 9.500000e-02
      vertex 2.580940e-02 2.580940e-02 1.350000e-01
      vertex 2.821488e-02 2.315535e-02 1.350000e-01
    endloop
  endfacet
  facet normal 6.715587e-01 7.409514e-01 -0.000000e+00
    outer loop
      vertex 2.580940e-02 2.580940e-02 9.500000e-02
      vertex 2.315535e-02 2.821488e-02 9.500000e-02
      vertex 2.580940e-02 2.580940e-02 1.350000e-01
    endloop
  endfacet
  facet normal 6.715587e-01 7.409514e-01 -0.000000e+00
    outer loop
      vertex 2.315535e-02 2.821488e-02 9.500000e-02
      vertex 2.315535e-02 2.821488e-02 1.350000e-01
      vertex 2.580940e-02 2.580940e-02 1.350000e-01
    endloop
  endfacet
  facet normal 5.956994e-01 8.032075e-01 -0.000000e+00
    outer loop
      vertex 2.315535e-02 2.821488e-02 9.500000e-02
      vertex 2.027831e-02 3.034864e-02 9.500000e-02
      vertex 2.315535e-02 2.821488e-02 1.350000e-01
    endloop
  endfacet
  facet normal 5.956994e-01 8.032075e-01 -0.000000e+00
    outer loop
      vertex 2.027831e-02 3.034864e-02 9.500000e-02
      vertex 2.027831e-02 3.034864e-02 1.350000e-01
      vertex 2.315535e-02 2.821488e-02 1.350000e-01
    endloop
  endfacet
  facet normal 5.141028e-01 8.577285e-01 -0.000000e+00
    outer loop
      vertex 2.027831e-02 3.034864e-02 9.500000e-02
      vertex 1.720598e-02 3.219013e-02 9.500000e-02
      vertex 2.027831e-02 3.034864e-02 1.350000e-01
    endloop
  endfacet
  facet normal 5.141028e-01 8.577285e-01 -0.000000e+00
    outer loop
      vertex 1.720598e-02 3.219013e-02 9.500000e-02
      vertex 1.720598e-02 3.219013e-02 1.350000e-01
      vertex 2.027831e-02 3.034864e-02 1.350000e-01
    endloop
  endfacet
  facet normal 4.275553e-01 9.039892e-01 -0.000000e+00
    outer loop
      vertex 1.720598e-02 3.219013e-02 9.500000e-02
      vertex 1.396795e-02 3.372160e-02 9.500000e-02
      vertex 1.720598e-02 3.219013e-02 1.350000e-01
    endloop
  endfacet
  facet normal 4.275553e-01 9.039892e-01 -0.000000e+00
    outer loop
      vertex 1.396795e-02 3.372160e-02 9.500000e-02
      vertex 1.396795e-02 3.372160e-02 1.350000e-01
      vertex 1.720598e-02 3.219013e-02 1.350000e-01
    endloop
  endfacet
  facet normal 3.368896e-01 9.415442e-01 -0.000000e+00
    outer loop
      vertex 1.396795e-02 3.372160e-02 9.500000e-02
      vertex 1.059539e-02 3.492832e-02 9.500000e-02
      vertex 1.396795e-02 3.372160e-02 1.350000e-01
    endloop
  endfacet
  facet normal 3.368896e-01 9.415442e-01 -0.000000e+00
    outer loop
      vertex 1.059539e-02 3.492832e-02 9.500000e-02
      vertex 1.059539e-02 3.492832e-02 1.350000e-01
      vertex 1.396795e-02 3.372160e-02 1.350000e-01
    endloop
  endfacet
  facet normal 2.429800e-01 9.700314e-01 -0.000000e+00
    outer loop
      vertex 1.059539e-02 3.492832e-02 9.500000e-02
      vertex 7.120797e-03 3.579866e-02 9.500000e-02
      vertex 1.059539e-02 3.492832e-02 1.350000e-01
    endloop
  endfacet
  facet normal 2.429800e-01 9.700314e-01 -0.000000e+00
    outer loop
      vertex 7.120797e-03 3.579866e-02 9.500000e-02
      vertex 7.120797e-03 3.579866e-02 1.350000e-01
      vertex 1.059539e-02 3.492832e-02 1.350000e-01
    endloop
  endfacet
  facet normal 1.467312e-01 9.891764e-01 -0.000000e+00
    outer loop
      vertex 7.120797e-03 3.579866e-02 9.500000e-02
      vertex 3.577626e-03 3.632424e-02 9.500000e-02
      vertex 7.120797e-03 3.579866e-02 1.350000e-01
    endloop
  endfacet
  facet normal 1.467312e-01 9.891764e-01 -0.000000e+00
    outer loop
      vertex 3.577626e-03 3.632424e-02 9.500000e-02
      vertex 3.577626e-03 3.632424e-02 1.350000e-01
      vertex 7.120797e-03 3.579866e-02 1.350000e-01
    endloop
  endfacet
  facet normal 4.906711e-02 9.987954e-01 -0.000000e+00
    outer loop
      vertex 3.577626e-03 3.632424e-02 9.500000e-02
      vertex 2.234980e-18 3.650000e-02 9.500000e-02
      vertex 3.577626e-03 3.632424e-02 1.350000e-01
    endloop
  endfacet
  facet normal 4.906711e-02 9.987954e-01 -0.000000e+00
    outer loop
      vertex 2.234980e-18 3.650000e-02 9.500000e-02
      vertex 2.234980e-18 3.650000e-02 1.350000e-01
      vertex 3.577626e-03 3.632424e-02 1.350000e-01
    endloop
  endfacet
  facet normal -4.906711e-02 9.987954e-01 0.000000e+00
    outer loop
      vertex 2.234980e-18 3.650000e-02 9.500000e-02
      vertex -3.577626e-03 3.632424e-02 9.500000e-02
      vertex 2.234980e-18 3.650000e-02 1.350000e-01
    endloop
  endfacet
  facet normal -4.906711e-02 9.987954e-01 0.000000e+00
    outer loop
      vertex -3.577626e-03 3.632424e-02 9.500000e-02
      vertex -3.577626e-03 3.632424e-02 1.350000e-01
      vertex 2.234980e-18 3.650000e-02 1.350000e-01
    endloop
  endfacet
  facet normal -1.467312e-01 9.891764e-01 0.000000e+00
    outer loop
      vertex -3.577626e-03 3.632424e-02 9.500000e-02
      vertex -7.120797e-03 3.579866e-02 9.500000e-02
      vertex -3.577626e-03 3.632424e-02 1.350000e-01
    endloop
  endfacet
  facet normal -1.467312e-01 9.891764e-01 0.000000e+00
    outer loop
      vertex -7.120797e-03 3.579866e-02 9.500000e-02
      vertex -7.120797e-03 3.579866e-02 1.350000e-01
      vertex -3.577626e-03 3.632424e-02 1.350000e-01
    endloop
  endfacet
  facet normal -2.429800e-01 9.700314e-01 0.000000e+00
    outer loop
      vertex -7.120797e-03 3.579866e-02 9.500000e-02
      vertex -1.059539e-02 3.492832e-02 9.500000e-02
      vertex -7.120797e-03 3.579866e-02 1.350000e-01
    endloop
  endfacet
  facet normal -2.429800e-01 9.700314e-01 0.000000e+00
    outer loop
      vertex -1.059539e-02 3.492832e-02 9.500000e-02
      vertex -1.059539e-02 3.492832e-02 1.350000e-01
      vertex -7.120797e-03 3.579866e-02 1.350000e-01
    endloop
  endfacet
  facet normal -3.368896e-01 9.415442e-01 0.000000e+00
    outer loop
      vertex -1.059539e-02 3.492832e-02 9.500000e-02
      vertex -1.396795e-02 3.372160e-02 9.500000e-02
      vertex -1.059539e-02 3.492832e-02 1.350000e-01
    endloop
  endfacet
  facet normal -3.368896e-01 9.415442e-01 0.000000e+00
    outer loop
      vertex -1.396795e-02 3.372160e-02 9.500000e-02
      vertex -1.396795e-02 3.372160e-02 1.350000e-01
      vertex -1.059539e-02 3.492832e-02 1.350000e-01
    endloop
  endfacet
  facet normal -4.275553e-01 9.039892e-01 0.000000e+00
    outer loop
      vertex -1.396795e-02 3.372160e-02 9.500000e-02
      vertex -1.720598e-02 3.219013e-02 9.500000e-02
      vertex -1.396795e-02 3.372160e-02 1.350000e-01
    endloop
  endfacet
  facet normal -4.275553e-01 9.039892e-01 0.000000e+00
    outer loop
      vertex -1.720598e-02 3.219013e-02 9.500000e-02
      vertex -1.720598e-02 3.219013e-02 1.350000e-01
      vertex -1.396795e-02 3.372160e-02 1.350000e-01
    endloop
  endfacet
  facet normal -5.141028e-01 8.577285e-01 0.000000e+00
    outer loop
      vertex -1.720598e-02 3.219013e-02 9.500000e-02
      vertex -2.027831e-02 3.034864e-02 9.500000e-02
      vertex -1.720598e-02 3.219013e-02 1.350000e-01
    endloop
  endfacet
  facet normal -5.141028e-01 8.577285e-01 0.000000e+00
    outer loop
      vertex -2.027831e-02 3.034864e-02 9.500000e-02
      vertex -2.027831e-02 3.034864e-02 1.350000e-01
      vertex -1.720598e-02 3.219013e-02 1.350000e-01
    endloop
  endfacet
  facet normal -5.956994e-01 8.032075e-01 0.000000e+00
    outer loop
      vertex -2.027831e-02 3.034864e-02 9.500000e-02
      vertex -2.315535e-02 2.821488e-02 9.500000e-02
      vertex -2.027831e-02 3.034864e-02 1.350000e-01
    endloop
  endfacet
  facet normal -5.956994e-01 8.032075e-01 0.000000e+00
    outer loop
      vertex -2.315535e-02 2.821488e-02 9.500000e-02
      vertex -2.315535e-02 2.821488e-02 1.350000e-01
      vertex -2.027831e-02 3.034864e-02 1.350000e-01
    endloop
  endfacet
  facet normal -6.715587e-01 7.409514e-01 0.000000e+00
    outer loop
      vertex -2.315535e-02 2.821488e-02 9.500000e-02
      vertex -2.580940e-02 2.580940e-02 9.500000e-02
      vertex -2.315535e-02 2.821488e-02 1.350000e-01
    endloop
  endfacet
  facet normal -6.715587e-01 7.409514e-01 0.000000e+00
    outer loop
      vertex -2.580940e-02 2.580940e-02 9.500000e-02
      vertex -2.580940e-02 2.580940e-02 1.350000e-01
      vertex -2.315535e-02 2.821488e-02 1.350000e-01
    endloop
  endfacet
  facet normal -7.409514e-01 6.715587e-01 0.000000e+00
    outer loop
      vertex -2.580940e-02 2.580940e-02 9.500000e-02
      vertex -2.821488e-02 2.315535e-02 9.500000e-02
      vertex -2.580940e-02 2.580940e-02 1.350000e-01
    endloop
  endfacet
  facet normal -7.409514e-01 6.715587e-01 0.000000e+00
    outer loop
      vertex -2.821488e-02 2.315535e-02 9.500000e-02
      vertex -2.821488e-02 2.315535e-02 1.350000e-01
      vertex -2.580940e-02 2.580940e-02 1.350000e-01
    endloop
  endfacet
  facet normal -8.032075e-01 5.956994e-01 0.000000e+00
    outer loop
      vertex -2.821488e-02 2.315535e-02 9.500000e-02
      vertex -3.034864e-02 2.027831e-02 9.500000e-02
      vertex -2.821488e-02 2.315535e-02 1.350000e-01
    endloop
  endfacet
  facet normal -8.032075e-01 5.956994e-01 0.000000e+00
    outer loop
      vertex -3.034864e-02 2.027831e-02 9.500000e-02
      vertex -3.034864e-02 2.027831e-02 1.350000e-01
      vertex -2.821488e-02 2.315535e-02 1.350000e-01
    endloop
  endfacet
  facet normal -8.577285e-01 5.141028e-01 0.000000e+00
    outer loop
      vertex -3.034864e-02 2.027831e-02 9.500000e-02
      vertex -3.219013e-02 1.720598e-02 9.500000e-02
      vertex -3.034864e-02 2.027831e-02 1.350000e-01
    endloop
  endfacet
  facet normal -8.577285e-01 5.141028e-01 0.000000e+00
    outer loop
      vertex -3.219013e-02 1.720598e-02 9.500000e-02
      vertex -3.219013e-02 1.720598e-02 1.350000e-01
      vertex -3.034864e-02 2.027831e-02 1.350000e-01
    endloop
  endfacet
  facet normal -9.039892e-01 4.275553e-01 0.000000e+00
    outer loop
      vertex -3.219013e-02 1.720598e-02 9.500000e-02
      vertex -3.372160e-02 1.396795e-02 9.500000e-02
      vertex -3.219013e-02 1.720598e-02 1.350000e-01
    endloop
  endfacet
  facet normal -9.039892e-01 4.275553e-01 0.000000e+00
    outer loop
      vertex -3.372160e-02 1.396795e-02 9.500000e-02
      vertex -3.372160e-02 1.396795e-02 1.350000e-01
      vertex -3.219013e-02 1.720598e-02 1.350000e-01
    endloop
  endfacet
  facet normal -9.415442e-01 3.368896e-01 0.000000e+00
    outer loop
      vertex -3.372160e-02 1.396795e-02 9.500000e-02
      vertex -3.492832e-02 1.059539e-02 9.500000e-02
      vertex -3.372160e-02 1.396795e-02 1.350000e-01
    endloop
  endfacet
  facet normal -9.415442e-01 3.368896e-01 0.000000e+00
    outer loop
      vertex -3.492832e-02 1.059539e-02 9.500000e-02
      vertex -3.492832e-02 1.059539e-02 1.350000e-01
      vertex -3.372160e-02 1.396795e-02 1.350000e-01
    endloop
  endfacet
  facet normal -9.700314e-01 2.429800e-01 0.000000e+00
    outer loop
      vertex -3.492832e-02 1.059539e-02 9.500000e-02
      vertex -3.579866e-02 7.120797e-03 9.500000e-02
      vertex -3.492832e-02 1.059539e-02 1.350000e-01
    endloop
  endfacet
  facet normal -9.700314e-01 2.429800e-01 0.000000e+00
    outer loop
      vertex -3.579866e-02 7.120797e-03 9.500000e-02
      vertex -3.579866e-02 7.120797e-03 1.350000e-01
      vertex -3.492832e-02 1.059539e-02 1.350000e-01
    endloop
  endfacet
  facet normal -9.891764e-01 1.467312e-01 0.000000e+00
    outer loop
      vertex -3.579866e-02 7.120797e-03 9.500000e-02
      vertex -3.632424e-02 3.577626e-03 9.500000e-02
      vertex -3.579866e-02 7.120797e-03 1.350000e-01
    endloop
  endfacet
  facet normal -9.891764e-01 1.467312e-01 0.000000e+00
    outer loop
      vertex -3.632424e-02 3.577626e-03 9.500000e-02
      vertex -3.632424e-02 3.577626e-03 1.350000e-01
      vertex -3.579866e-02 7.120797e-03 1.350000e-01
    endloop
  endfacet
  facet normal -9.987954e-01 4.906711e-02 0.000000e+00
    outer loop
      vertex -3.632424e-02 3.577626e-03 9.500000e-02
      vertex -3.650000e-02 4.469961e-18 9.500000e-02
      vertex -3.632424e-02 3.577626e-03 1.350000e-01
    endloop
  endfacet
  facet normal -9.987954e-01 4.906711e-02 0.000000e+00
    outer loop
      vertex -3.650000e-02 4.469961e-18 9.500000e-02
      vertex -3.650000e-02 4.469961e-18 1.350000e-01
      vertex -3.632424e-02 3.577626e-03 1.350000e-01
    endloop
  endfacet
  facet normal -9.987954e-01 -4.906711e-02 0.000000e+00
    outer loop
      vertex -3.650000e-02 4.469961e-18 9.500000e-02
      vertex -3.632424e-02 -3.577626e-03 9.500000e-02
      vertex -3.650000e-02 4.469961e-18 1.350000e-01
    endloop
  endfacet
  facet normal -9.987954e-01 -4.906711e-02 0.000000e+00
    outer loop
      vertex -3.632424e-02 -3.577626e-03 9.500000e-02
      vertex -3.632424e-02 -3.577626e-03 1.350000e-01
      vertex -3.650000e-02 4.469961e-18 1.350000e-01
    endloop
  endfacet
  facet normal -9.891764e-01 -1.467312e-01 0.000000e+00
    outer loop
      vertex -3.632424e-02 -3.577626e-03 9.500000e-02
      vertex -3.579866e-02 -7.120797e-03 9.500000e-02
      vertex -3.632424e-02 -3.577626e-03 1.350000e-01
    endloop
  endfacet
  facet normal -9.891764e-01 -1.467312e-01 0.000000e+00
    outer loop
      vertex -3.579866e-02 -7.120797e-03 9.500000e-02
      vertex -3.579866e-02 -7.120797e-03 1.350000e-01
      vertex -3.632424e-02 -3.577626e-03 1.350000e-01
    endloop
  endfacet
  facet normal -9.700314e-01 -2.429800e-01 0.000000e+00
    outer loop
      vertex -3.579866e-02 -7.120797e-03 9.500000e-02
      vertex -3.492832e-02 -1.059539e-02 9.500000e-02
      vertex -3.579866e-02 -7.120797e-03 1.350000e-01
    endloop
  endfacet
  facet normal -9.700314e-01 -2.429800e-01 0.000000e+00
    outer loop
      vertex -3.492832e-02 -1.059539e-02 9.500000e-02
      vertex -3.492832e-02 -1.059539e-02 1.350000e-01
      vertex -3.579866e-02 -7.120797e-03 1.350000e-01
    endloop
  endfacet
  facet normal -9.415442e-01 -3.368896e-01 0.000000e+00
    outer loop
      vertex -3.492832e-02 -1.059539e-02 9.500000e-02
      vertex -3.372160e-02 -1.396795e-02 9.500000e-02
      vertex -3.492832e-02 -1.059539e-02 1.350000e-01
    endloop
  endfacet
  facet normal -9.415442e-01 -3.368896e-01 0.000000e+00
    outer loop
      vertex -3.372160e-02 -1.396795e-02 9.500000e-02
      vertex -3.372160e-02 -1.396795e-02 1.350000e-01
      vertex -3.492832e-02 -1.059539e-02 1.350000e-01
    endloop
  endfacet
  facet normal -9.039892e-01 -4.275553e-01 0.000000e+00
    outer loop
      vertex -3.372160e-02 -1.396795e-02 9.500000e-02
      vertex -3.219013e-02 -1.720598e-02 9.500000e-02
      vertex -3.372160e-02 -1.396795e-02 1.350000e-01
    endloop
  endfacet
  facet normal -9.039892e-01 -4.275553e-01 0.000000e+00
    outer loop
      vertex -3.219013e-02 -1.720598e-02 9.500000e-02
      vertex -3.219013e-02 -1.720598e-02 1.350000e-01
      vertex -3.372160e-02 -1.396795e-02 1.350000e-01
    endloop
  endfacet
  facet normal -8.577285e-01 -5.141028e-01 0.000000e+00
    outer loop
      vertex -3.219013e-02 -1.720598e-02 9.500000e-02
      vertex -3.034864e-02 -2.027831e-02 9.500000e-02
      vertex -3.219013e-02 -1.720598e-02 1.350000e-01
    endloop
  endfacet
  facet normal -8.577285e-01 -5.141028e-01 0.000000e+00
    outer loop
      vertex -3.034864e-02 -2.027831e-02 9.500000e-02
      vertex -3.034864e-02 -2.027831e-02 1.350000e-01
      vertex -3.219013e-02 -1.720598e-02 1.350000e-01
    endloop
  endfacet
  facet normal -8.032075e-01 -5.956994e-01 0.000000e+00
    outer loop
      vertex -3.034864e-02 -2.027831e-02 9.500000e-02
      vertex -2.821488e-02 -2.315535e-02 9.500000e-02
      vertex -3.034864e-02 -2.027831e-02 1.350000e-01
    endloop
  endfacet
  facet normal -8.032075e-01 -5.956994e-01 0.000000e+00
    outer loop
      vertex -2.821488e-02 -2.315535e-02 9.500000e-02
      vertex -2.821488e-02 -2.315535e-02 1.350000e-01
      vertex -3.034864e-02 -2.027831e-02 1.350000e-01
    endloop
  endfacet
  facet normal -7.409514e-01 -6.715587e-01 0.000000e+00
    outer loop
      vertex -2.821488e-02 -2.315535e-02 9.500000e-02
      vertex -2.580940e-02 -2.580940e-02 9.500000e-02
      vertex -2.821488e-02 -2.315535e-02 1.350000e-01
    endloop
  endfacet
  facet normal -7.409514e-01 -6.715587e-01 0.000000e+00
    outer loop
      vertex -2.580940e-02 -2.580940e-02 9.500000e-02
      vertex -2.580940e-02 -2.580940e-02 1.350000e-01
      vertex -2.821488e-02 -2.315535e-02 1.350000e-01
    endloop
  endfacet
  facet normal -6.715587e-01 -7.409514e-01 0.000000e+00
    outer loop
      vertex -2.580940e-02 -2.580940e-02 9.500000e-02
      vertex -2.315535e-02 -2.821488e-02 9.500000e-02
      vertex -2.580940e-02 -2.580940e-02 1.350000e-01
    endloop
  endfacet
  facet normal -6.715587e-01 -7.409514e-01 0.000000e+00
    outer loop
      vertex -2.315535e-02 -2.821488e-02 9.500000e-02
      vertex -2.315535e-02 -2.821488e-02 1.350000e-01
      vertex -2.580940e-02 -2.580940e-02 1.350000e-01
    endloop
  endfacet
  facet normal -5.956994e-01 -8.032075e-01 0.000000e+00
    outer loop
      vertex -2.315535e-02 -2.821488e-02 9.500000e-02
      vertex -2.027831e-02 -3.034864e-02 9.500000e-02
      vertex -2.315535e-02 -2.821488e-02 1.350000e-01
    endloop
  endfacet
  facet normal -5.956994e-01 -8.032075e-01 0.000000e+00
    outer loop
      vertex -2.027831e-02 -3.034864e-02 9.500000e-02
      vertex -2.027831e-02 -3.034864e-02 1.350000e-01
      vertex -2.315535e-02 -2.821488e-02 1.350000e-01
    endloop
  endfacet
  facet normal -5.141028e-01 -8.577285e-01 0.000000e+00
    outer loop
      vertex -2.027831e-02 -3.034864e-02 9.500000e-02
      vertex -1.720598e-02 -3.219013e-02 9.500000e-02
      vertex -2.027831e-02 -3.034864e-02 1.350000e-01
    endloop
  endfacet
  facet normal -5.141028e-01 -8.577285e-01 0.000000e+00
    outer loop
      vertex -1.720598e-02 -3.219013e-02 9.500000e-02
      vertex -1.720598e-02 -3.219013e-02 1.350000e-01
      vertex -2.027831e-02 -3.034864e-02 1.350000e-01
    endloop
  endfacet
  facet normal -4.275553e-01 -9.039892e-01 0.000000e+00
    outer loop
      vertex -1.720598e-02 -3.219013e-02 9.500000e-02
      vertex -1.396795e-02 -3.372160e-02 9.500000e-02
      vertex -1.720598e-02 -3.219013e-02 1.350000e-01
    endloop
  endfacet
  facet normal -4.275553e-01 -9.039892e-01 0.000000e+00
    outer loop
      vertex -1.396795e-02 -3.372160e-02 9.500000e-02
      vertex -1.396795e-02 -3.372160e-02 1.350000e-01
      vertex -1.720598e-02 -3.219013e-02 1.350000e-01
    endloop
  endfacet
  facet normal -3.368896e-01 -9.415442e-01 0.000000e+00
    outer loop
      vertex -1.396795e-02 -3.372160e-02 9.500000e-02
      vertex -1.059539e-02 -3.492832e-02 9.500000e-02
      vertex -1.396795e-02 -3.372160e-02 1.350000e-01
    endloop
  endfacet
  facet normal -3.368896e-01 -9.415442e-01 0.000000e+00
    outer loop
      vertex -1.059539e-02 -3.492832e-02 9.500000e-02
      vertex -1.059539e-02 -3.492832e-02 1.350000e-01
      vertex -1.396795e-02 -3.372160e-02 1.350000e-01
    endloop
  endfacet
  facet normal -2.429800e-01 -9.700314e-01 0.000000e+00
    outer loop
      vertex -1.059539e-02 -3.492832e-02 9.500000e-02
      vertex -7.120797e-03 -3.579866e-02 9.500000e-02
      vertex -1.059539e-02 -3.492832e-02 1.350000e-01
    endloop
  endfacet
  facet normal -2.429800e-01 -9.700314e-01 0.000000e+00
    outer loop
      vertex -7.120797e-03 -3.579866e-02 9.500000e-02
      vertex -7.120797e-03 -3.579866e-02 1.350000e-01
      vertex -1.059539e-02 -3.492832e-02 1.350000e-01
    endloop
  endfacet
  facet normal -1.467312e-01 -9.891764e-01 0.000000e+00
    outer loop
      vertex -7.120797e-03 -3.579866e-02 9.500000e-02
      vertex -3.577626e-03 -3.632424e-02 9.500000e-02
      vertex -7.120797e-03 -3.579866e-02 1.350000e-01
    endloop
  endfacet
  facet normal -1.467312e-01 -9.891764e-01 0.000000e+00
    outer loop
      vertex -3.577626e-03 -3.632424e-02 9.500000e-02
      vertex -3.577626e-03 -3.632424e-02 1.350000e-01
      vertex -7.120797e-03 -3.579866e-02 1.350000e-01
    endloop
  endfacet
  facet normal -4.906711e-02 -9.987954e-01 0.000000e+00
    outer loop
      vertex -3.577626e-03 -3.632424e-02 9.500000e-02
      vertex -6.704941e-18 -3.650000e-02 9.500000e-02
      vertex -3.577626e-03 -3.632424e-02 1.350000e-01
    endloop
  endfacet
  facet normal -4.906711e-02 -9.987954e-01 0.000000e+00
    outer loop
      vertex -6.704941e-18 -3.650000e-02 9.500000e-02
      vertex -6.704941e-18 -3.650000e-02 1.350000e-01
      vertex -3.577626e-03 -3.632424e-02 1.350000e-01
    endloop
  endfacet
  facet normal 4.906711e-02 -9.987954e-01 0.000000e+00
    outer loop
      vertex -6.704941e-18 -3.650000e-02 9.500000e-02
      vertex 3.577626e-03 -3.632424e-02 9.500000e-02
      vertex -6.704941e-18 -3.650000e-02 1.350000e-01
    endloop
  endfacet
  facet normal 4.906711e-02 -9.987954e-01 0.000000e+00
    outer loop
      vertex 3.577626e-03 -3.632424e-02 9.500000e-02
      vertex 3.577626e-03 -3.632424e-02 1.350000e-01
      vertex -6.704941e-18 -3.650000e-02 1.350000e-01
    endloop
  endfacet
  facet normal 1.467312e-01 -9.891764e-01 0.000000e+00
    outer loop
      vertex 3.577626e-03 -3.632424e-02 9.500000e-02
      vertex 7.120797e-03 -3.579866e-02 9.500000e-02
      vertex 3.577626e-03 -3.632424e-02 1.350000e-01
    endloop
  endfacet
  facet normal 1.467312e-01 -9.891764e-01 0.000000e+00
    outer loop
      vertex 7.120797e-03 -3.579866e-02 9.500000e-02
      vertex 7.120797e-03 -3.579866e-02 1.350000e-01
      vertex 3.577626e-03 -3.632424e-02 1.350000e-01
    endloop
  endfacet
  facet normal 2.429800e-01 -9.700314e-01 0.000000e+00
    outer loop
      vertex 7.120797e-03 -3.579866e-02 9.500000e-02
      vertex 1.059539e-02 -3.492832e-02 9.500000e-02
      vertex 7.120797e-03 -3.579866e-02 1.350000e-01
    endloop
  endfacet
  facet normal 2.429800e-01 -9.700314e-01 0.000000e+00
    outer loop
      vertex 1.059539e-02 -3.492832e-02 9.500000e-02
      vertex 1.059539e-02 -3.492832e-02 1.350000e-01
      vertex 7.120797e-03 -3.579866e-02 1.350000e-01
    endloop
  endfacet
  facet normal 3.368896e-01 -9.415442e-01 0.000000e+00
    outer loop
      vertex 1.059539e-02 -3.492832e-02 9.500000e-02
      vertex 1.396795e-02 -3.372160e-02 9.500000e-02
      vertex 1.059539e-02 -3.492832e-02 1.350000e-01
    endloop
  endfacet
  facet normal 3.368896e-01 -9.415442e-01 0.000000e+00
    outer loop
      vertex 1.396795e-02 -3.372160e-02 9.500000e-02
      vertex 1.396795e-02 -3.372160e-02 1.350000e-01
      vertex 1.059539e-02 -3.492832e-02 1.350000e-01
    endloop
  endfacet
  facet normal 4.275553e-01 -9.039892e-01 0.000000e+00
    outer loop
      vertex 1.396795e-02 -3.372160e-02 9.500000e-02
      vertex 1.720598e-02 -3.219013e-02 9.500000e-02
      vertex 1.396795e-02 -3.372160e-02 1.350000e-01
    endloop
  endfacet
  facet normal 4.275553e-01 -9.039892e-01 0.000000e+00
    outer loop
      vertex 1.720598e-02 -3.219013e-02 9.500000e-02
      vertex 1.720598e-02 -3.219013e-02 1.350000e-01
      vertex 1.396795e-02 -3.372160e-02 1.350000e-01
    endloop
  endfacet
  facet normal 5.141028e-01 -8.577285e-01 0.000000e+00
    outer loop
      vertex 1.720598e-02 -3.219013e-02 9.500000e-02
      vertex 2.027831e-02 -3.034864e-02 9.500000e-02
      vertex 1.720598e-02 -3.219013e-02 1.350000e-01
    endloop
  endfacet
  facet normal 5.141028e-01 -8.577285e-01 0.000000e+00
    outer loop
      vertex 2.027831e-02 -3.034864e-02 9.500000e-02
      vertex 2.027831e-02 -3.034864e-02 1.350000e-01
      vertex 1.720598e-02 -3.219013e-02 1.350000e-01
    endloop
  endfacet
  facet normal 5.956994e-01 -8.032075e-01 0.000000e+00
    outer loop
      vertex 2.027831e-02 -3.034864e-02 9.500000e-02
      vertex 2.315535e-02 -2.821488e-02 9.500000e-02
      vertex 2.027831e-02 -3.034864e-02 1.350000e-01
    endloop
  endfacet
  facet normal 5.956994e-01 -8.032075e-01 0.000000e+00
    outer loop
      vertex 2.315535e-02 -2.821488e-02 9.500000e-02
      vertex 2.315535e-02 -2.821488e-02 1.350000e-01
      vertex 2.027831e-02 -3.034864e-02 1.350000e-01
    endloop
  endfacet
  facet normal 6.715587e-01 -7.409514e-01 0.000000e+00
    outer loop
      vertex 2.315535e-02 -2.821488e-02 9.500000e-02
      vertex 2.580940e-02 -2.580940e-02 9.500000e-02
      vertex 2.315535e-02 -2.821488e-02 1.350000e-01
    endloop
  endfacet
  facet normal 6.715587e-01 -7.409514e-01 0.000000e+00
    outer loop
      vertex 2.580940e-02 -2.580940e-02 9.500000e-02
      vertex 2.580940e-02 -2.580940e-02 1.350000e-01
      vertex 2.315535e-02 -2.821488e-02 1.350000e-01
    endloop
  endfacet
  facet normal 7.409514e-01 -6.715587e-01 0.000000e+00
    outer loop
      vertex 2.580940e-02 -2.580940e-02 9.500000e-02
      vertex 2.821488e-02 -2.315535e-02 9.500000e-02
      vertex 2.580940e-02 -2.580940e-02 1.350000e-01
    endloop
  endfacet
  facet normal 7.409514e-01 -6.715587e-01 0.000000e+00
    outer loop
      vertex 2.821488e-02 -2.315535e-02 9.500000e-02
      vertex 2.821488e-02 -2.315535e-02 1.350000e-01
      vertex 2.580940e-02 -2.580940e-02 1.350000e-01
    endloop
  endfacet
  facet normal 8.032075e-01 -5.956994e-01 0.000000e+00
    outer loop
      vertex 2.821488e-02 -2.315535e-02 9.500000e-02
      vertex 3.034864e-02 -2.027831e-02 9.500000e-02
      vertex 2.821488e-02 -2.315535e-02 1.350000e-01
    endloop
  endfacet
  facet normal 8.032075e-01 -5.956994e-01 0.000000e+00
    outer loop
      vertex 3.034864e-02 -2.027831e-02 9.500000e-02
      vertex 3.034864e-02 -2.027831e-02 1.350000e-01
      vertex 2.821488e-02 -2.315535e-02 1.350000e-01
    endloop
  endfacet
  facet normal 8.577285e-01 -5.141028e-01 0.000000e+00
    outer loop
      vertex 3.034864e-02 -2.027831e-02 9.500000e-02
      vertex 3.219013e-02 -1.720598e-02 9.500000e-02
      vertex 3.034864e-02 -2.027831e-02 1.350000e-01
    endloop
  endfacet
  facet normal 8.577285e-01 -5.141028e-01 0.000000e+00
    outer loop
      vertex 3.219013e-02 -1.720598e-02 9.500000e-02
      vertex 3.219013e-02 -1.720598e-02 1.350000e-01
      vertex 3.034864e-02 -2.027831e-02 1.350000e-01
    endloop
  endfacet
  facet normal 9.039892e-01 -4.275553e-01 0.000000e+00
    outer loop
      vertex 3.219013e-02 -1.720598e-02 9.500000e-02
      vertex 3.372160e-02 -1.396795e-02 9.500000e-02
      vertex 3.219013e-02 -1.720598e-02 1.350000e-01
    endloop
  endfacet
  facet normal 9.039892e-01 -4.275553e-01 0.000000e+00
    outer loop
      vertex 3.372160e-02 -1.396795e-02 9.500000e-02
      vertex 3.372160e-02 -1.396795e-02 1.350000e-01
      vertex 3.219013e-02 -1.720598e-02 1.350000e-01
    endloop
  endfacet
  facet normal 9.415442e-01 -3.368896e-01 0.000000e+00
    outer loop
      vertex 3.372160e-02 -1.396795e-02 9.500000e-02
      vertex 3.492832e-02 -1.059539e-02 9.500000e-02
      vertex 3.372160e-02 -1.396795e-02 1.350000e-01
    endloop
  endfacet
  facet normal 9.415442e-01 -3.368896e-01 0.000000e+00
    outer loop
      vertex 3.492832e-02 -1.059539e-02 9.500000e-02
      vertex 3.492832e-02 -1.059539e-02 1.350000e-01
      vertex 3.372160e-02 -1.396795e-02 1.350000e-01
    endloop
  endfacet
  facet normal 9.700314e-01 -2.429800e-01 0.000000e+00
    outer loop
      vertex 3.492832e-02 -1.059539e-02 9.500000e-02
      vertex 3.579866e-02 -7.120797e-03 9.500000e-02
      vertex 3.492832e-02 -1.059539e-02 1.350000e-01
    endloop
  endfacet
  facet normal 9.700314e-01 -2.429800e-01 0.000000e+00
    outer loop
      vertex 3.579866e-02 -7.120797e-03 9.500000e-02
      vertex 3.579866e-02 -7.120797e-03 1.350000e-01
      vertex 3.492832e-02 -1.059539e-02 1.350000e-01
    endloop
  endfacet
  facet normal 9.891764e-01 -1.467312e-01 0.000000e+00
    outer loop
      vertex 3.579866e-02 -7.120797e-03 9.500000e-02
      vertex 3.632424e-02 -3.577626e-03 9.500000e-02
      vertex 3.579866e-02 -7.120797e-03 1.350000e-01
    endloop
  endfacet
  facet normal 9.891764e-01 -1.467312e-01 0.000000e+00
    outer loop
      vertex 3.632424e-02 -3.577626e-03 9.500000e-02
      vertex 3.632424e-02 -3.577626e-03 1.350000e-01
      vertex 3.579866e-02 -7.120797e-03 1.350000e-01
    endloop
  endfacet
  facet normal 9.987954e-01 -4.906711e-02 0.000000e+00
    outer loop
      vertex 3.632424e-02 -3.577626e-03 9.500000e-02
      vertex 3.650000e-02 0.000000e+00 9.500000e-02
      vertex 3.632424e-02 -3.577626e-03 1.350000e-01
    endloop
  endfacet
  facet normal 9.987954e-01 -4.906711e-02 0.000000e+00
    outer loop
      vertex 3.650000e-02 0.000000e+00 9.500000e-02
      vertex 3.650000e-02 0.000000e+00 1.350000e-01
      vertex 3.632424e-02 -3.577626e-03 1.350000e-01
    endloop
  endfacet
  facet normal 0.000000e+00 0.000000e+00 -1.000000e+00
    outer loop
      vertex 0.000000e+00 0.000000e+00 9.500000e-02
      vertex 3.632424e-02 3.577626e-03 9.500000e-02
      vertex 3.650000e-02 0.000000e+00 9.500000e-02
    endloop
  endfacet
  facet normal 0.000000e+00 0.000000e+00 -1.000000e+00
    outer loop
      vertex 0.000000e+00 0.000000e+00 9.500000e-02
      vertex 3.579866e-02 7.120797e-03 9.500000e-02
      vertex 3.632424e-02 3.577626e-03 9.500000e-02
    endloop
  endfacet
  facet normal 0.000000e+00 0.000000e+00 -1.000000e+00
    outer loop
      vertex 0.000000e+00 0.000000e+00 9.500000e-02
      vertex 3.492832e-02 1.059539e-02 9.500000e-02
      vertex 3.579866e-02 7.120797e-03 9.500000e-02
    endloop
  endfacet
  facet normal 0.000000e+00 0.000000e+00 -1.000000e+00
    outer loop
      vertex 0.000000e+00 0.000000e+00 9.500000e-02
      vertex 3.372160e-02 1.396795e-02 9.500000e-02
      vertex 3.492832e-02 1.059539e-02 9.500000e-02
    endloop
  endfacet
  facet normal 0.000000e+00 0.000000e+00 -1.000000e+00
    outer loop
      vertex 0.000000e+00 0.000000e+00 9.500000e-02
      vertex 3.219013e-02 1.720598e-02 9.500000e-02
      vertex 3.372160e-02 1.396795e-02 9.500000e-02
    endloop
  endfacet
  facet normal 0.000000e+00 0.000000e+00 -1.000000e+00
    outer loop
      vertex 0.000000e+00 0.000000e+00 9.500000e-02
      vertex 3.034864e-02 2.027831e-02 9.500000e-02
      vertex 3.219013e-02 1.720598e-02 9.500000e-02
    endloop
  endfacet
  facet normal 0.000000e+00 0.000000e+00 -1.000000e+00
    outer loop
      vertex 0.000000e+00 0.000000e+00 9.500000e-02
      vertex 2.821488e-02 2.315535e-02 9.500000e-02
      vertex 3.034864e-02 2.027831e-02 9.500000e-02
    endloop
  endfacet
  facet normal 0.000000e+00 0.000000e+00 -1.000000e+00
    outer loop
      vertex 0.000000e+00 0.000000e+00 9.500000e-02
      vertex 2.580940e-02 2.580940e-02 9.500000e-02
      vertex 2.821488e-02 2.315535e-02 9.500000e-02
    endloop
  endfacet
  facet normal 0.000000e+00 0.000000e+00 -1.000000e+00
    outer loop
      vertex 0.000000e+00 0.000000e+00 9.500000e-02
      vertex 2.315535e-02 2.821488e-02 9.500000e-02
      vertex 2.580940e-02 2.580940e-02 9.500000e-02
    endloop
  endfacet
  facet normal 0.000000e+00 0.000000e+00 -1.000000e+00
    outer loop
      vertex 0.000000e+00 0.000000e+00 9.500000e-02
      vertex 2.027831e-02 3.034864e-02 9.500000e-02
      vertex 2.315535e-02 2.821488e-02 9.500000e-02
    endloop
  endfacet
  facet normal 0.000000e+00 0.000000e+00 -1.000000e+00
    outer loop
      vertex 0.000000e+00 0.000000e+00 9.500000e-02
      vertex 1.720598e-02 3.219013e-02 9.500000e-02
      vertex 2.027831e-02 3.034864e-02 9.500000e-02
    endloop
  endfacet
  facet normal 0.000000e+00 0.000000e+00 -1.000000e+00
    outer loop
      vertex 0.000000e+00 0.000000e+00 9.500000e-02
      vertex 1.396795e-02 3.372160e-02 9.500000e-02
      vertex 1.720598e-02 3.219013e-02 9.500000e-02
    endloop
  endfacet
  facet normal 0.000000e+00 0.000000e+00 -1.000000e+00
    outer loop
      vertex 0.000000e+00 0.000000e+00 9.500000e-02
      vertex 1.059539e-02 3.492832e-02 9.500000e-02
      vertex 1.396795e-02 3.372160e-02 9.500000e-02
    endloop
  endfacet
  facet normal 0.000000e+00 0.000000e+00 -1.000000e+00
    outer loop
      vertex 0.000000e+00 0.000000e+00 9.500000e-02
      vertex 7.120797e-03 3.579866e-02 9.500000e-02
      vertex 1.059539e-02 3.492832e-02 9.500000e-02
    endloop
  endfacet
  facet normal 0.000000e+00 0.000000e+00 -1.000000e+00
    outer loop
      vertex 0.000000e+00 0.000000e+00 9.500000e-02
      vertex 3.577626e-03 3.632424e-02 9.500000e-02
      vertex 7.120797e-03 3.579866e-02 9.500000e-02
    endloop
  endfacet
  facet normal 0.000000e+00 0.000000e+00 -1.000000e+00
    outer loop
      vertex 0.000000e+00 0.000000e+00 9.500000e-02
      vertex 2.234980e-18 3.650000e-02 9.500000e-02
      vertex 3.577626e-03 3.632424e-02 9.500000e-02
    endloop
  endfacet
  facet normal 0.000000e+00 0.000000e+00 -1.000000e+00
    outer loop
      vertex 0.000000e+00 0.000000e+00 9.500000e-02
      vertex -3.577626e-03 3.632424e-02 9.500000e-02
      vertex 2.234980e-18 3.650000e-02 9.500000e-02
    endloop
  endfacet
  facet normal 0.000000e+00 0.000000e+00 -1.000000e+00
    outer loop
      vertex 0.000000e+00 0.000000e+00 9.500000e-02
      vertex -7.120797e-03 3.579866e-02 9.500000e-02
      vertex -3.577626e-03 3.632424e-02 9.500000e-02
    endloop
  endfacet
  facet normal 0.000000e+00 0.000000e+00 -1.000000e+00
    outer loop
      vertex 0.000000e+00 0.000000e+00 9.500000e-02
      vertex -1.059539e-02 3.492832e-02 9.500000e-02
      vertex -7.120797e-03 3.579866e-02 9.500000e-02
    endloop
  endfacet
  facet normal 0.000000e+00 0.000000e+00 -1.000000e+00
    outer loop
      vertex 0.000000e+00 0.000000e+00 9.500000e-02
      vertex -1.396795e-02 3.372160e-02 9.500000e-02
      vertex -1.059539e-02 3.492832e-02 9.500000e-02
    endloop
  endfacet
  facet normal 0.000000e+00 0.000000e+00 -1.000000e+00
    outer loop
      vertex 0.000000e+00 0.000000e+00 9.500000e-02
      vertex -1.720598e-02 3.219013e-02 9.500000e-02
      vertex -1.396795e-02 3.372160e-02 9.500000e-02
    endloop
  endfacet
  facet normal 0.000000e+00 0.000000e+00 -1.000000e+00
    outer loop
      vertex 0.000000e+00 0.000000e+00 9.500000e-02
      vertex -2.027831e-02 3.034864e-02 9.500000e-02
      vertex -1.720598e-02 3.219013e-02 9.500000e-02
    endloop
  endfacet
  facet normal 0.000000e+00 0.000000e+00 -1.000000e+00
    outer loop
      vertex 0.000000e+00 0.000000e+00 9.500000e-02
      vertex -2.315535e-02 2.821488e-02 9.500000e-02
      vertex -2.027831e-02 3.034864e-02 9.500000e-02
    endloop
  endfacet
  facet normal 0.000000e+00 0.000000e+00 -1.000000e+00
    outer loop
      vertex 0.000000e+00 0.000000e+00 9.500000e-02
      vertex -2.580940e-02 2.580940e-02 9.500000e-02
      vertex -2.315535e-02 2.821488e-02 9.500000e-02
    endloop
  endfacet
  facet normal 0.000000e+00 0.000000e+00 -1.000000e+00
    outer loop
      vertex 0.000000e+00 0.000000e+00 9.500000e-02
      vertex -2.821488e-02 2.315535e-02 9.500000e-02
      vertex -2.580940e-02 2.580940e-02 9.500000e-02
    endloop
  endfacet
  facet normal 0.000000e+00 0.000000e+00 -1.000000e+00
    outer loop
      vertex 0.000000e+00 0.000000e+00 9.500000e-02
      vertex -3.034864e-02 2.027831e-02 9.500000e-02
      vertex -2.821488e-02 2.315535e-02 9.500000e-02
    endloop
  endfacet
  facet normal 0.000000e+00 0.000000e+00 -1.000000e+00
    outer loop
      vertex 0.000000e+00 0.000000e+00 9.500000e-02
      vertex -3.219013e-02 1.720598e-02 9.500000e-02
      vertex -3.034864e-02 2.027831e-02 9.500000e-02
    endloop
  endfacet
  facet normal 0.000000e+00 0.000000e+00 -1.000000e+00
    outer loop
      vertex 0.000000e+00 0.000000e+00 9.500000e-02
      vertex -3.372160e-02 1.396795e-02 9.500000e-02
      vertex -3.219013e-02 1.720598e-02 9.500000e-02
    endloop
  endfacet
  facet normal 0.000000e+00 0.000000e+00 -1.000000e+00
    outer loop
      vertex 0.000000e+00 0.000000e+00 9.500000e-02
      vertex -3.492832e-02 1.059539e-02 9.500000e-02
      vertex -3.372160e-02 1.396795e-02 9.500000e-02
    endloop
  endfacet
  facet normal 0.000000e+00 0.000000e+00 -1.000000e+00
    outer loop
      vertex 0.000000e+00 0.000000e+00 9.500000e-02
      vertex -3.579866e-02 7.120797e-03 9.500000e-02
      vertex -3.492832e-02 1.059539e-02 9.500000e-02
    endloop
  endfacet
  facet normal 0.000000e+00 0.000000e+00 -1.000000e+00
    outer loop
      vertex 0.000000e+00 0.000000e+00 9.500000e-02
      vertex -3.632424e-02 3.577626e-03 9.500000e-02
      vertex -3.579866e-02 7.120797e-03 9.500000e-02
    endloop
  endfacet
  facet normal 0.000000e+00 0.000000e+00 -1.000000e+00
    outer loop
      vertex 0.000000e+00 0.000000e+00 9.500000e-02
      vertex -3.650000e-02 4.469961e-18 9.500000e-02
      vertex -3.632424e-02 3.577626e-03 9.500000e-02
    endloop
  endfacet
  facet normal -0.000000e+00 0.000000e+00 -1.000000e+00
    outer loop
      vertex 0.000000e+00 0.000000e+00 9.500000e-02
      vertex -3.632424e-02 -3.577626e-03 9.500000e-02
      vertex -3.650000e-02 4.469961e-18 9.500000e-02
    endloop
  endfacet
  facet normal 0.000000e+00 0.000000e+00 -1.000000e+00
    outer loop
      vertex 0.000000e+00 0.000000e+00 9.500000e-02
      vertex -3.579866e-02 -7.120797e-03 9.500000e-02
      vertex -3.632424e-02 -3.577626e-03 9.500000e-02
    endloop
  endfacet
  facet normal 0.000000e+00 0.000000e+00 -1.000000e+00
    outer loop
      vertex 0.000000e+00 0.000000e+00 9.500000e-02
      vertex -3.492832e-02 -1.059539e-02 9.500000e-02
      vertex -3.579866e-02 -7.120797e-03 9.500000e-02
    endloop
  endfacet
  facet normal 0.000000e+00 0.000000e+00 -1.000000e+00
    outer loop
      vertex 0.000000e+00 0.000000e+00 9.500000e-02
      vertex -3.372160e-02 -1.396795e-02 9.500000e-02
      vertex -3.492832e-02 -1.059539e-02 9.500000e-02
    endloop
  endfacet
  facet normal 0.000000e+00 0.000000e+00 -1.000000e+00
    outer loop
      vertex 0.000000e+00 0.000000e+00 9.500000e-02
      vertex -3.219013e-02 -1.720598e-02 9.500000e-02
      vertex -3.372160e-02 -1.396795e-02 9.500000e-02
    endloop
  endfacet
  facet normal 0.000000e+00 0.000000e+00 -1.000000e+00
    outer loop
      vertex 0.000000e+00 0.000000e+00 9.500000e-02
      vertex -3.034864e-02 -2.027831e-02 9.500000e-02
      vertex -3.219013e-02 -1.720598e-02 9.500000e-02
    endloop
  endfacet
  facet normal 0.000000e+00 0.000000e+00 -1.000000e+00
    outer loop
      vertex 0.000000e+00 0.000000e+00 9.500000e-02
      vertex -2.821488e-02 -2.315535e-02 9.500000e-02
      vertex -3.034864e-02 -2.027831e-02 9.500000e-02
    endloop
  endfacet
  facet normal 0.000000e+00 0.000000e+00 -1.000000e+00
    outer loop
      vertex 0.000000e+00 0.000000e+00 9.500000e-02
      vertex -2.580940e-02 -2.580940e-02 9.500000e-02
      vertex -2.821488e-02 -2.315535e-02 9.500000e-02
    endloop
  endfacet
  facet normal 0.000000e+00 0.000000e+00 -1.000000e+00
    outer loop
      vertex 0.000000e+00 0.000000e+00 9.500000e-02
      vertex -2.315535e-02 -2.821488e-02 9.500000e-02
      vertex -2.580940e-02 -2.580940e-02 9.500000e-02
    endloop
  endfacet
  facet normal 0.000000e+00 0.000000e+00 -1.000000e+00
    outer loop
      vertex 0.000000e+00 0.000000e+00 9.500000e-02
      vertex -2.027831e-02 -3.034864e-02 9.500000e-02
      vertex -2.315535e-02 -2.821488e-02 9.500000e-02
    endloop
  endfacet
  facet normal 0.000000e+00 0.000000e+00 -1.000000e+00
    outer loop
      vertex 0.000000e+00 0.000000e+00 9.500000e-02
      vertex -1.720598e-02 -3.219013e-02 9.500000e-02
      vertex -2.027831e-02 -3.034864e-02 9.500000e-02
    endloop
  endfacet
  facet normal 0.000000e+00 0.000000e+00 -1.000000e+00
    outer loop
      vertex 0.000000e+00 0.000000e+00 9.500000e-02
      vertex -1.396795e-02 -3.372160e-02 9.500000e-02
      vertex -1.720598e-02 -3.219013e-02 9.500000e-02
    endloop
  endfacet
  facet normal 0.000000e+00 0.000000e+00 -1.000000e+00
    outer loop
      vertex 0.000000e+00 0.000000e+00 9.500000e-02
      vertex -1.059539e-02 -3.492832e-02 9.500000e-02
      vertex -1.396795e-02 -3.372160e-02 9.500000e-02
    endloop
  endfacet
  facet normal 0.000000e+00 0.000000e+00 -1.000000e+00
    outer loop
      vertex 0.000000e+00 0.000000e+00 9.500000e-02
      vertex -7.120797e-03 -3.579866e-02 9.500000e-02
      vertex -1.059539e-02 -3.492832e-02 9.500000e-02
    endloop
  endfacet
  facet normal 0.000000e+00 0.000000e+00 -1.000000e+00
    outer loop
      vertex 0.000000e+00 0.000000e+00 9.500000e-02
      vertex -3.577626e-03 -3.632424e-02 9.500000e-02
      vertex -7.120797e-03 -3.579866e-02 9.500000e-02
    endloop
  endfacet
  facet normal 0.000000e+00 0.000000e+00 -1.000000e+00
    outer loop
      vertex 0.000000e+00 0.000000e+00 9.500000e-02
      vertex -6.704941e-18 -3.650000e-02 9.500000e-02
      vertex -3.577626e-03 -3.632424e-02 9.500000e-02
    endloop
  endfacet
  facet normal 0.000000e+00 -0.000000e+00 -1.000000e+00
    outer loop
      vertex 0.000000e+00 0.000000e+00 9.500000e-02
      vertex 3.577626e-03 -3.632424e-02 9.500000e-02
      vertex -6.704941e-18 -3.650000e-02 9.500000e-02
    endloop
  endfacet
  facet normal 0.000000e+00 0.000000e+00 -1.000000e+00
    outer loop
      vertex 0.000000e+00 0.000000e+00 9.500000e-02
      vertex 7.120797e-03 -3.579866e-02 9.500000e-02
      vertex 3.577626e-03 -3.632424e-02 9.500000e-02
    endloop
  endfacet
  facet normal 0.000000e+00 0.000000e+00 -1.000000e+00
    outer loop
      vertex 0.000000e+00 0.000000e+00 9.500000e-02
      vertex 1.059539e-02 -3.492832e-02 9.500000e-02
      vertex 7.120797e-03 -3.579866e-02 9.500000e-02
    endloop
  endfacet
  facet normal 0.000000e+00 0.000000e+00 -1.000000e+00
    outer loop
      vertex 0.000000e+00 0.000000e+00 9.500000e-02
      vertex 1.396795e-02 -3.372160e-02 9.500000e-02
      vertex 1.059539e-02 -3.492832e-02 9.500000e-02
    endloop
  endfacet
  facet normal 0.000000e+00 0.000000e+00 -1.000000e+00
    outer loop
      vertex 0.000000e+00 0.000000e+00 9.500000e-02
      vertex 1.720598e-02 -3.219013e-02 9.500000e-02
      vertex 1.396795e-02 -3.372160e-02 9.500000e-02
    endloop
  endfacet
  facet normal 0.000000e+00 0.000000e+00 -1.000000e+00
    outer loop
      vertex 0.000000e+00 0.000000e+00 9.500000e-02
      vertex 2.027831e-02 -3.034864e-02 9.500000e-02
      vertex 1.720598e-02 -3.219013e-02 9.500000e-02
    endloop
  endfacet
  facet normal 0.000000e+00 0.000000e+00 -1.000000e+00
    outer loop
      vertex 0.000000e+00 0.000000e+00 9.500000e-02
      vertex 2.315535e-02 -2.821488e-02 9.500000e-02
      vertex 2.027831e-02 -3.034864e-02 9.500000e-02
    endloop
  endfacet
  facet normal 0.000000e+00 0.000000e+00 -1.000000e+00
    outer loop
      vertex 0.000000e+00 0.000000e+00 9.500000e-02
      vertex 2.580940e-02 -2.580940e-02 9.500000e-02
      vertex 2.315535e-02 -2.821488e-02 9.500000e-02
    endloop
  endfacet
  facet normal 0.000000e+00 0.000000e+00 -1.000000e+00
    outer loop
      vertex 0.000000e+00 0.000000e+00 9.500000e-02
      vertex 2.821488e-02 -2.315535e-02 9.500000e-02
      vertex 2.580940e-02 -2.580940e-02 9.500000e-02
    endloop
  endfacet
  facet normal 0.000000e+00 0.000000e+00 -1.000000e+00
    outer loop
      vertex 0.000000e+00 0.000000e+00 9.500000e-02
      vertex 3.034864e-02 -2.027831e-02 9.500000e-02
      vertex 2.821488e-02 -2.315535e-02 9.500000e-02
    endloop
  endfacet
  facet normal 0.000000e+00 0.000000e+00 -1.000000e+00
    outer loop
      vertex 0.000000e+00 0.000000e+00 9.500000e-02
      vertex 3.219013e-02 -1.720598e-02 9.500000e-02
      vertex 3.034864e-02 -2.027831e-02 9.500000e-02
    endloop
  endfacet
  facet normal 0.000000e+00 0.000000e+00 -1.000000e+00
    outer loop
      vertex 0.000000e+00 0.000000e+00 9.500000e-02
      vertex 3.372160e-02 -1.396795e-02 9.500000e-02
      vertex 3.219013e-02 -1.720598e-02 9.500000e-02
    endloop
  endfacet
  facet normal 0.000000e+00 0.000000e+00 -1.000000e+00
    outer loop
      vertex 0.000000e+00 0.000000e+00 9.500000e-02
      vertex 3.492832e-02 -1.059539e-02 9.500000e-02
      vertex 3.372160e-02 -1.396795e-02 9.500000e-02
    endloop
  endfacet
  facet normal 0.000000e+00 0.000000e+00 -1.000000e+00
    outer loop
      vertex 0.000000e+00 0.000000e+00 9.500000e-02
      vertex 3.579866e-02 -7.120797e-03 9.500000e-02
      vertex 3.492832e-02 -1.059539e-02 9.500000e-02
    endloop
  endfacet
  facet normal 0.000000e+00 0.000000e+00 -1.000000e+00
    outer loop
      vertex 0.000000e+00 0.000000e+00 9.500000e-02
      vertex 3.632424e-02 -3.577626e-03 9.500000e-02
      vertex 3.579866e-02 -7.120797e-03 9.500000e-02
    endloop
  endfacet
  facet normal 0.000000e+00 0.000000e+00 -1.000000e+00
    outer loop
      vertex 0.000000e+00 0.000000e+00 9.500000e-02
      vertex 3.650000e-02 0.000000e+00 9.500000e-02
      vertex 3.632424e-02 -3.577626e-03 9.500000e-02
    endloop
  endfacet
  facet normal 0.000000e+00 0.000000e+00 1.000000e+00
    outer loop
      vertex 0.000000e+00 0.000000e+00 1.350000e-01
      vertex 3.650000e-02 0.000000e+00 1.350000e-01
      vertex 3.632424e-02 3.577626e-03 1.350000e-01
    endloop
  endfacet
  facet normal 0.000000e+00 0.000000e+00 1.000000e+00
    outer loop
      vertex 0.000000e+00 0.000000e+00 1.350000e-01
      vertex 3.632424e-02 3.577626e-03 1.350000e-01
      vertex 3.579866e-02 7.120797e-03 1.350000e-01
    endloop
  endfacet
  facet normal 0.000000e+00 0.000000e+00 1.000000e+00
    outer loop
      vertex 0.000000e+00 0.000000e+00 1.350000e-01
      vertex 3.579866e-02 7.120797e-03 1.350000e-01
      vertex 3.492832e-02 1.059539e-02 1.350000e-01
    endloop
  endfacet
  facet normal 0.000000e+00 0.000000e+00 1.000000e+00
    outer loop
      vertex 0.000000e+00 0.000000e+00 1.350000e-01
      vertex 3.492832e-02 1.059539e-02 1.350000e-01
      vertex 3.372160e-02 1.396795e-02 1.350000e-01
    endloop
  endfacet
  facet normal 0.000000e+00 0.000000e+00 1.000000e+00
    outer loop
      vertex 0.000000e+00 0.000000e+00 1.350000e-01
      vertex 3.372160e-02 1.396795e-02 1.350000e-01
      vertex 3.219013e-02 1.720598e-02 1.350000e-01
    endloop
  endfacet
  facet normal 0.000000e+00 0.000000e+00 1.000000e+00
    outer loop
      vertex 0.000000e+00 0.000000e+00 1.350000e-01
      vertex 3.219013e-02 1.720598e-02 1.350000e-01
      vertex 3.034864e-02 2.027831e-02 1.350000e-01
    endloop
  endfacet
  facet normal 0.000000e+00 0.000000e+00 1.000000e+00
    outer loop
      vertex 0.000000e+00 0.000000e+00 1.350000e-01
      vertex 3.034864e-02 2.027831e-02 1.350000e-01
      vertex 2.821488e-02 2.315535e-02 1.350000e-01
    endloop
  endfacet
  facet normal 0.000000e+00 0.000000e+00 1.000000e+00
    outer loop
      vertex 0.000000e+00 0.000000e+00 1.350000e-01
      vertex 2.821488e-02 2.315535e-02 1.350000e-01
      vertex 2.580940e-02 2.580940e-02 1.350000e-01
    endloop
  endfacet
  facet normal 0.000000e+00 0.000000e+00 1.000000e+00
    outer loop
      vertex 0.000000e+00 0.000000e+00 1.350000e-01
      vertex 2.580940e-02 2.580940e-02 1.350000e-01
      vertex 2.315535e-02 2.821488e-02 1.350000e-01
    endloop
  endfacet
  facet normal 0.000000e+00 0.000000e+00 1.000000e+00
    outer loop
      vertex 0.000000e+00 0.000000e+00 1.350000e-01
      vertex 2.315535e-02 2.821488e-02 1.350000e-01
      vertex 2.027831e-02 3.034864e-02 1.350000e-01
    endloop
  endfacet
  facet normal 0.000000e+00 0.000000e+00 1.000000e+00
    outer loop
      vertex 0.000000e+00 0.000000e+00 1.350000e-01
      vertex 2.027831e-02 3.034864e-02 1.350000e-01
      vertex 1.720598e-02 3.219013e-02 1.350000e-01
    endloop
  endfacet
  facet normal 0.000000e+00 0.000000e+00 1.000000e+00
    outer loop
      vertex 0.000000e+00 0.000000e+00 1.350000e-01
      vertex 1.720598e-02 3.219013e-02 1.350000e-01
      vertex 1.396795e-02 3.372160e-02 1.350000e-01
    endloop
  endfacet
  facet normal 0.000000e+00 0.000000e+00 1.000000e+00
    outer loop
      vertex 0.000000e+00 0.000000e+00 1.350000e-01
      vertex 1.396795e-02 3.372160e-02 1.350000e-01
      vertex 1.059539e-02 3.492832e-02 1.350000e-01
    endloop
  endfacet
  facet normal 0.000000e+00 0.000000e+00 1.000000e+00
    outer loop
      vertex 0.000000e+00 0.000000e+00 1.350000e-01
      vertex 1.059539e-02 3.492832e-02 1.350000e-01
      vertex 7.120797e-03 3.579866e-02 1.350000e-01
    endloop
  endfacet
  facet normal 0.000000e+00 0.000000e+00 1.000000e+00
    outer loop
      vertex 0.000000e+00 0.000000e+00 1.350000e-01
      vertex 7.120797e-03 3.579866e-02 1.350000e-01
      vertex 3.577626e-03 3.632424e-02 1.350000e-01
    endloop
  endfacet
  facet normal 0.000000e+00 0.000000e+00 1.000000e+00
    outer loop
      vertex 0.000000e+00 0.000000e+00 1.350000e-01
      vertex 3.577626e-03 3.632424e-02 1.350000e-01
      vertex 2.234980e-18 3.650000e-02 1.350000e-01
    endloop
  endfacet
  facet normal 0.000000e+00 -0.000000e+00 1.000000e+00
    outer loop
      vertex 0.000000e+00 0.000000e+00 1.350000e-01
      vertex 2.234980e-18 3.650000e-02 1.350000e-01
      vertex -3.577626e-03 3.632424e-02 1.350000e-01
    endloop
  endfacet
  facet normal 0.000000e+00 0.000000e+00 1.000000e+00
    outer loop
      vertex 0.000000e+00 0.000000e+00 1.350000e-01
      vertex -3.577626e-03 3.632424e-02 1.350000e-01
      vertex -7.120797e-03 3.579866e-02 1.350000e-01
    endloop
  endfacet
  facet normal 0.000000e+00 0.000000e+00 1.000000e+00
    outer loop
      vertex 0.000000e+00 0.000000e+00 1.350000e-01
      vertex -7.120797e-03 3.579866e-02 1.350000e-01
      vertex -1.059539e-02 3.492832e-02 1.350000e-01
    endloop
  endfacet
  facet normal 0.000000e+00 0.000000e+00 1.000000e+00
    outer loop
      vertex 0.000000e+00 0.000000e+00 1.350000e-01
      vertex -1.059539e-02 3.492832e-02 1.350000e-01
      vertex -1.396795e-02 3.372160e-02 1.350000e-01
    endloop
  endfacet
  facet normal 0.000000e+00 0.000000e+00 1.000000e+00
    outer loop
      vertex 0.000000e+00 0.000000e+00 1.350000e-01
      vertex -1.396795e-02 3.372160e-02 1.350000e-01
      vertex -1.720598e-02 3.219013e-02 1.350000e-01
    endloop
  endfacet
  facet normal 0.000000e+00 0.000000e+00 1.000000e+00
    outer loop
      vertex 0.000000e+00 0.000000e+00 1.350000e-01
      vertex -1.720598e-02 3.219013e-02 1.350000e-01
      vertex -2.027831e-02 3.034864e-02 1.350000e-01
    endloop
  endfacet
  facet normal 0.000000e+00 0.000000e+00 1.000000e+00
    outer loop
      vertex 0.000000e+00 0.000000e+00 1.350000e-01
      vertex -2.027831e-02 3.034864e-02 1.350000e-01
      vertex -2.315535e-02 2.821488e-02 1.350000e-01
    endloop
  endfacet
  facet normal 0.000000e+00 0.000000e+00 1.000000e+00
    outer loop
      vertex 0.000000e+00 0.000000e+00 1.350000e-01
      vertex -2.315535e-02 2.821488e-02 1.350000e-01
      vertex -2.580940e-02 2.580940e-02 1.350000e-01
    endloop
  endfacet
  facet normal 0.000000e+00 0.000000e+00 1.000000e+00
    outer loop
      vertex 0.000000e+00 0.000000e+00 1.350000e-01
      vertex -2.580940e-02 2.580940e-02 1.350000e-01
      vertex -2.821488e-02 2.315535e-02 1.350000e-01
    endloop
  endfacet
  facet normal 0.000000e+00 0.000000e+00 1.000000e+00
    outer loop
      vertex 0.000000e+00 0.000000e+00 1.350000e-01
      vertex -2.821488e-02 2.315535e-02 1.350000e-01
      vertex -3.034864e-02 2.027831e-02 1.350000e-01
    endloop
  endfacet
  facet normal 0.000000e+00 0.000000e+00 1.000000e+00
    outer loop
      vertex 0.000000e+00 0.000000e+00 1.350000e-01
      vertex -3.034864e-02 2.027831e-02 1.350000e-01
      vertex -3.219013e-02 1.720598e-02 1.350000e-01
    endloop
  endfacet
  facet normal 0.000000e+00 0.000000e+00 1.000000e+00
    outer loop
      vertex 0.000000e+00 0.000000e+00 1.350000e-01
      vertex -3.219013e-02 1.720598e-02 1.350000e-01
      vertex -3.372160e-02 1.396795e-02 1.350000e-01
    endloop
  endfacet
  facet normal 0.000000e+00 0.000000e+00 1.000000e+00
    outer loop
      vertex 0.000000e+00 0.000000e+00 1.350000e-01
      vertex -3.372160e-02 1.396795e-02 1.350000e-01
      vertex -3.492832e-02 1.059539e-02 1.350000e-01
    endloop
  endfacet
  facet normal 0.000000e+00 0.000000e+00 1.000000e+00
    outer loop
      vertex 0.000000e+00 0.000000e+00 1.350000e-01
      vertex -3.492832e-02 1.059539e-02 1.350000e-01
      vertex -3.579866e-02 7.120797e-03 1.350000e-01
    endloop
  endfacet
  facet normal 0.000000e+00 0.000000e+00 1.000000e+00
    outer loop
      vertex 0.000000e+00 0.000000e+00 1.350000e-01
      vertex -3.579866e-02 7.120797e-03 1.350000e-01
      vertex -3.632424e-02 3.577626e-03 1.350000e-01
    endloop
  endfacet
  facet normal 0.000000e+00 0.000000e+00 1.000000e+00
    outer loop
      vertex 0.000000e+00 0.000000e+00 1.350000e-01
      vertex -3.632424e-02 3.577626e-03 1.350000e-01
      vertex -3.650000e-02 4.469961e-18 1.350000e-01
    endloop
  endfacet
  facet normal 0.000000e+00 0.000000e+00 1.000000e+00
    outer loop
      vertex 0.000000e+00 0.000000e+00 1.350000e-01
      vertex -3.650000e-02 4.469961e-18 1.350000e-01
      vertex -3.632424e-02 -3.577626e-03 1.350000e-01
    endloop
  endfacet
  facet normal 0.000000e+00 0.000000e+00 1.000000e+00
    outer loop
      vertex 0.000000e+00 0.000000e+00 1.350000e-01
      vertex -3.632424e-02 -3.577626e-03 1.350000e-01
      vertex -3.579866e-02 -7.120797e-03 1.350000e-01
    endloop
  endfacet
  facet normal 0.000000e+00 0.000000e+00 1.000000e+00
    outer loop
      vertex 0.000000e+00 0.000000e+00 1.350000e-01
      vertex -3.579866e-02 -7.120797e-03 1.350000e-01
      vertex -3.492832e-02 -1.059539e-02 1.350000e-01
    endloop
  endfacet
  facet normal 0.000000e+00 0.000000e+00 1.000000e+00
    outer loop
      vertex 0.000000e+00 0.000000e+00 1.350000e-01
      vertex -3.492832e-02 -1.059539e-02 1.350000e-01
      vertex -3.372160e-02 -1.396795e-02 1.350000e-01
    endloop
  endfacet
  facet normal 0.000000e+00 0.000000e+00 1.000000e+00
    outer loop
      vertex 0.000000e+00 0.000000e+00 1.350000e-01
      vertex -3.372160e-02 -1.396795e-02 1.350000e-01
      vertex -3.219013e-02 -1.720598e-02 1.350000e-01
    endloop
  endfacet
  facet normal 0.000000e+00 0.000000e+00 1.000000e+00
    outer loop
      vertex 0.000000e+00 0.000000e+00 1.350000e-01
      vertex -3.219013e-02 -1.720598e-02 1.350000e-01
      vertex -3.034864e-02 -2.027831e-02 1.350000e-01
    endloop
  endfacet
  facet normal 0.000000e+00 0.000000e+00 1.000000e+00
    outer loop
      vertex 0.000000e+00 0.000000e+00 1.350000e-01
      vertex -3.034864e-02 -2.027831e-02 1.350000e-01
      vertex -2.821488e-02 -2.315535e-02 1.350000e-01
    endloop
  endfacet
  facet normal 0.000000e+00 0.000000e+00 1.000000e+00
    outer loop
      vertex 0.000000e+00 0.000000e+00 1.350000e-01
      vertex -2.821488e-02 -2.315535e-02 1.350000e-01
      vertex -2.580940e-02 -2.580940e-02 1.350000e-01
    endloop
  endfacet
  facet normal 0.000000e+00 0.000000e+00 1.000000e+00
    outer loop
      vertex 0.000000e+00 0.000000e+00 1.350000e-01
      vertex -2.580940e-02 -2.580940e-02 1.350000e-01
      vertex -2.315535e-02 -2.821488e-02 1.350000e-01
    endloop
  endfacet
  facet normal 0.000000e+00 0.000000e+00 1.000000e+00
    outer loop
      vertex 0.000000e+00 0.000000e+00 1.350000e-01
      vertex -2.315535e-02 -2.821488e-02 1.350000e-01
      vertex -2.027831e-02 -3.034864e-02 1.350000e-01
    endloop
  endfacet
  facet normal 0.000000e+00 0.000000e+00 1.000000e+00
    outer loop
      vertex 0.000000e+00 0.000000e+00 1.350000e-01
      vertex -2.027831e-02 -3.034864e-02 1.350000e-01
      vertex -1.720598e-02 -3.219013e-02 1.350000e-01
    endloop
  endfacet
  facet normal 0.000000e+00 0.000000e+00 1.000000e+00
    outer loop
      vertex 0.000000e+00 0.000000e+00 1.350000e-01
      vertex -1.720598e-02 -3.219013e-02 1.350000e-01
      vertex -1.396795e-02 -3.372160e-02 1.350000e-01
    endloop
  endfacet
  facet normal 0.000000e+00 0.000000e+00 1.000000e+00
    outer loop
      vertex 0.000000e+00 0.000000e+00 1.350000e-01
      vertex -1.396795e-02 -3.372160e-02 1.350000e-01
      vertex -1.059539e-02 -3.492832e-02 1.350000e-01
    endloop
  endfacet
  facet normal 0.000000e+00 0.000000e+00 1.000000e+00
    outer loop
      vertex 0.000000e+00 0.000000e+00 1.350000e-01
      vertex -1.059539e-02 -3.492832e-02 1.350000e-01
      vertex -7.120797e-03 -3.579866e-02 1.350000e-01
    endloop
  endfacet
  facet normal 0.000000e+00 0.000000e+00 1.000000e+00
    outer loop
      vertex 0.000000e+00 0.000000e+00 1.350000e-01
      vertex -7.120797e-03 -3.579866e-02 1.350000e-01
      vertex -3.577626e-03 -3.632424e-02 1.350000e-01
    endloop
  endfacet
  facet normal 0.000000e+00 0.000000e+00 1.000000e+00
    outer loop
      vertex 0.000000e+00 0.000000e+00 1.350000e-01
      vertex -3.577626e-03 -3.632424e-02 1.350000e-01
      vertex -6.704941e-18 -3.650000e-02 1.350000e-01
    endloop
  endfacet
  facet normal 0.000000e+00 0.000000e+00 1.000000e+00
    outer loop
      vertex 0.000000e+00 0.000000e+00 1.350000e-01
      vertex -6.704941e-18 -3.650000e-02 1.350000e-01
      vertex 3.577626e-03 -3.632424e-02 1.350000e-01
    endloop
  endfacet
  facet normal 0.000000e+00 0.000000e+00 1.000000e+00
    outer loop
      vertex 0.000000e+00 0.000000e+00 1.350000e-01
      vertex 3.577626e-03 -3.632424e-02 1.350000e-01
      vertex 7.120797e-03 -3.579866e-02 1.350000e-01
    endloop
  endfacet
  facet normal 0.000000e+00 0.000000e+00 1.000000e+00
    outer loop
      vertex 0.000000e+00 0.000000e+00 1.350000e-01
      vertex 7.120797e-03 -3.579866e-02 1.350000e-01
      vertex 1.059539e-02 -3.492832e-02 1.350000e-01
    endloop
  endfacet
  facet normal 0.000000e+00 0.000000e+00 1.000000e+00
    outer loop
      vertex 0.000000e+00 0.000000e+00 1.350000e-01
      vertex 1.059539e-02 -3.492832e-02 1.350000e-01
      vertex 1.396795e-02 -3.372160e-02 1.350000e-01
    endloop
  endfacet
  facet normal 0.000000e+00 0.000000e+00 1.000000e+00
    outer loop
      vertex 0.000000e+00 0.000000e+00 1.350000e-01
      vertex 1.396795e-02 -3.372160e-02 1.350000e-01
      vertex 1.720598e-02 -3.219013e-02 1.350000e-01
    endloop
  endfacet
  facet normal 0.000000e+00 0.000000e+00 1.000000e+00
    outer loop
      vertex 0.000000e+00 0.000000e+00 1.350000e-01
      vertex 1.720598e-02 -3.219013e-02 1.350000e-01
      vertex 2.027831e-02 -3.034864e-02 1.350000e-01
    endloop
  endfacet
  facet normal 0.000000e+00 0.000000e+00 1.000000e+00
    outer loop
      vertex 0.000000e+00 0.000000e+00 1.350000e-01
      vertex 2.027831e-02 -3.034864e-02 1.350000e-01
      vertex 2.315535e-02 -2.821488e-02 1.350000e-01
    endloop
  endfacet
  facet normal 0.000000e+00 0.000000e+00 1.000000e+00
    outer loop
      vertex 0.000000e+00 0.000000e+00 1.350000e-01
      vertex 2.315535e-02 -2.821488e-02 1.350000e-01
      vertex 2.580940e-02 -2.580940e-02 1.350000e-01
    endloop
  endfacet
  facet normal 0.000000e+00 0.000000e+00 1.000000e+00
    outer loop
      vertex 0.000000e+00 0.000000e+00 1.350000e-01
      vertex 2.580940e-02 -2.580940e-02 1.350000e-01
      vertex 2.821488e-02 -2.315535e-02 1.350000e-01
    endloop
  endfacet
  facet normal 0.000000e+00 0.000000e+00 1.000000e+00
    outer loop
      vertex 0.000000e+00 0.000000e+00 1.350000e-01
      vertex 2.821488e-02 -2.315535e-02 1.350000e-01
      vertex 3.034864e-02 -2.027831e-02 1.350000e-01
    endloop
  endfacet
  facet normal 0.000000e+00 0.000000e+00 1.000000e+00
    outer loop
      vertex 0.000000e+00 0.000000e+00 1.350000e-01
      vertex 3.034864e-02 -2.027831e-02 1.350000e-01
      vertex 3.219013e-02 -1.720598e-02 1.350000e-01
    endloop
  endfacet
  facet normal 0.000000e+00 0.000000e+00 1.000000e+00
    outer loop
      vertex 0.000000e+00 0.000000e+00 1.350000e-01
      vertex 3.219013e-02 -1.720598e-02 1.350000e-01
      vertex 3.372160e-02 -1.396795e-02 1.350000e-01
    endloop
  endfacet
  facet normal 0.000000e+00 0.000000e+00 1.000000e+00
    outer loop
      vertex 0.000000e+00 0.000000e+00 1.350000e-01
      vertex 3.372160e-02 -1.396795e-02 1.350000e-01
      vertex 3.492832e-02 -1.059539e-02 1.350000e-01
    endloop
  endfacet
  facet normal 0.000000e+00 0.000000e+00 1.000000e+00
    outer loop
      vertex 0.000000e+00 0.000000e+00 1.350000e-01
      vertex 3.492832e-02 -1.059539e-02 1.350000e-01
      vertex 3.579866e-02 -7.120797e-03 1.350000e-01
    endloop
  endfacet
  facet normal 0.000000e+00 0.000000e+00 1.000000e+00
    outer loop
      vertex 0.000000e+00 0.000000e+00 1.350000e-01
      vertex 3.579866e-02 -7.120797e-03 1.350000e-01
      vertex 3.632424e-02 -3.577626e-03 1.350000e-01
    endloop
  endfacet
  facet normal -0.000000e+00 0.000000e+00 1.000000e+00
    outer loop
      vertex 0.000000e+00 0.000000e+00 1.350000e-01
      vertex 3.632424e-02 -3.577626e-03 1.350000e-01
      vertex 3.650000e-02 0.000000e+00 1.350000e-01
    endloop
  endfacet
endsolid exhaustValveRightInterface
